<?xml version="1.0" standalone="no"?>
<!DOCTYPE svg PUBLIC "-//W3C//DTD SVG 20010904//EN"
 "http://www.w3.org/TR/2001/REC-SVG-20010904/DTD/svg10.dtd">
<svg version="1.0" xmlns="http://www.w3.org/2000/svg"
 width="512.000000pt" height="512.000000pt" viewBox="0 0 512.000000 512.000000"
 preserveAspectRatio="xMidYMid meet">
<metadata>
Created by potrace 1.11, written by Peter Selinger 2001-2013
</metadata>
<g transform="translate(0.000000,512.000000) scale(0.100000,-0.100000)"
fill="#000000" stroke="none">
<path d="M2009 4048 c-50 -89 -508 -887 -530 -923 -11 -16 -22 -37 -26 -45 -4
-8 -45 -80 -91 -160 -47 -80 -96 -165 -110 -189 -63 -114 -635 -1109 -648
-1128 l-14 -23 177 0 178 0 39 68 c21 37 75 131 120 210 44 79 95 167 111 196
17 29 46 80 65 114 l35 62 542 0 543 0 5 -22 c6 -24 100 -494 111 -551 3 -17
7 -39 9 -47 2 -8 4 -18 4 -22 1 -5 82 -8 181 -8 137 0 180 3 180 13 0 10 -14
90 -34 187 -12 60 -58 297 -62 320 -2 14 -7 36 -9 50 -3 14 -8 39 -11 55 -3
17 -14 74 -25 128 -10 53 -21 110 -24 126 -3 16 -21 110 -40 208 -20 98 -37
187 -39 198 -2 11 -11 61 -21 110 -9 50 -19 101 -22 115 -2 14 -15 79 -28 145
-13 66 -33 172 -45 235 -12 63 -29 149 -37 190 -8 41 -17 84 -18 95 -2 11 -18
95 -36 188 l-33 167 -181 0 -181 0 -35 -62z m151 -615 c22 -103 61 -298 89
-433 28 -135 52 -256 55 -270 3 -14 14 -69 25 -124 12 -54 21 -100 21 -102 0
-2 -198 -4 -441 -4 l-441 0 25 43 c14 23 34 58 44 77 38 66 441 775 461 810
12 19 42 72 67 118 26 46 49 81 52 79 3 -3 22 -90 43 -194z"/>
<path d="M4175 4098 c-4 -12 -38 -176 -50 -243 -3 -16 -8 -41 -11 -55 -2 -14
-7 -36 -10 -50 -3 -14 -8 -36 -10 -50 -3 -14 -14 -68 -24 -120 -11 -52 -21
-108 -24 -125 -3 -16 -40 -201 -82 -410 -41 -209 -78 -391 -80 -405 -2 -14 -9
-48 -15 -76 -5 -28 -12 -61 -14 -75 -3 -13 -7 -33 -9 -44 -2 -11 -32 -159 -65
-330 -71 -354 -83 -405 -118 -495 -48 -121 -119 -203 -211 -247 -113 -53 -324
-33 -523 51 -14 6 -21 -16 -46 -146 -19 -97 -27 -155 -20 -159 5 -4 30 -10 56
-14 25 -3 55 -8 66 -11 62 -13 92 -16 210 -19 301 -8 504 83 690 310 78 95
164 305 209 515 25 115 47 219 51 240 12 65 20 101 67 335 27 138 52 259 54
270 2 11 6 31 9 45 2 14 7 36 9 50 2 14 30 153 61 310 31 157 59 296 61 310 3
14 12 59 20 100 9 41 18 86 20 100 2 14 9 45 14 70 9 42 13 61 26 130 2 14 15
76 28 138 l23 112 -179 0 c-134 0 -180 -3 -183 -12z"/>
</g>
</svg>
